# xmcd CD database file
# Copyright (C) 1993-2000  Ti Kan
#
# Track frame offsets:
#	202
#	10906
#	19558
#	30084
#	42286
#	52863
#	59873
#	71824
#	82695
#	93893
#	104416
#	114890
#	123650
#	133526
#
# Disc length: 1896 seconds
#
# Revision: 2
# Processed by: cddbd v1.4PL0 Copyright (c) Steve Scherf et al.
# Submitted via: xmcd 2.6 PL0
#
DISCID=a807660e
DTITLE=Waylon Jennings - Burning Memories
DYEAR=1900
DGENRE=
TTITLE0=Burning Memories
TTITLE1=Abilene
TTITLE2=Money (That's What I Want)
TTITLE3=Don't Think Twice, It's Alright
TTITLE4=Lorena
TTITLE5=It's So Easy
TTITLE6=Crying
TTITLE7=Dream Baby
TTITLE8=Big Mamou
TTITLE9=White Lightning
TTITLE10=Sally Was A Good Ol' Girl
TTITLE11=Love's Gonna Live Here
TTITLE12=When Sin Stops
TTITLE13=Jole Blon
EXTD=
EXTT0=
EXTT1=
EXTT2=
EXTT3=
EXTT4=
EXTT5=
EXTT6=
EXTT7=
EXTT8=
EXTT9=
EXTT10=
EXTT11=
EXTT12=
EXTT13=
PLAYORDER=
